#!OML:ASF E:\Mandelcareful walks\Project 1\Capture day 1\Session 1\Subject1.ASF
:FULLY-SPECIFIED
:DEGREES
781
root -28.5432 15.6284 0.0486612 -1077.12 36.0639 -5.98332
lowerback 9.1242 -2.36238 0.416612
upperback 3.53197 -3.09158 -1.78158
thorax -1.56917 -1.51147 -1.75296
lowerneck -17.5914 16.9893 10.3717
upperneck 19.5677 24.6082 -13.718
head 12.4361 10.4547 -2.18948
rclavicle 1.15295e-013 -2.8625e-014
rhumerus -52.0687 13.3158 -91.4414
rradius 63.5438
rwrist -21.9037
rhand -4.83215 -24.0093
rfingers 7.12502
rthumb 20.9547 -52.8974
lclavicle 1.15295e-013 -2.8625e-014
lhumerus -31.1534 -41.2854 102.788
lradius 79.1435
lwrist 8.74241
lhand -19.0674 -22.4847
lfingers 7.12502
lthumb 7.24013 7.37149
rfemur -18.7987 -2.24391 9.9791
rtibia 34.6668
rfoot -18.2478 -3.25461
rtoes -23.7772
lfemur -31.1823 -10.6076 -14.3187
ltibia 70.6053
lfoot -13.2355 -0.638022
ltoes 8.0244
782
root -28.7969 15.5692 0.197676 -1077.59 38.3395 -6.12106
lowerback 10.1655 -2.34468 0.945124
upperback 3.65294 -3.01041 -1.78339
thorax -2.03922 -1.46614 -2.02244
lowerneck -17.7443 16.5848 10.3059
upperneck 19.2792 24.0314 -13.9197
head 12.3028 10.1864 -2.37628
rclavicle 1.08934e-013 -3.33958e-014
rhumerus -51.7994 13.5792 -91.7811
rradius 62.2867
rwrist -21.531
rhand -4.3912 -24.2386
rfingers 7.12502
rthumb 21.3783 -53.0793
lclavicle 1.08934e-013 -3.33958e-014
lhumerus -31.3697 -41.005 102.646
lradius 78.0563
lwrist 12.0626
lhand -21.1632 -22.6094
lfingers 7.12502
lthumb 5.21673 7.30636
rfemur -18.9013 -3.55132 11.277
rtibia 36.2382
rfoot -19.7146 -4.53321
rtoes -27.595
lfemur -31.845 -8.5802 -14.5852
ltibia 71.8115
lfoot -14.6244 1.90718
ltoes 2.39732
783
root -29.0026 15.5331 0.341928 -1077.58 40.5514 -5.4357
lowerback 10.7739 -2.36253 1.02908
upperback 3.89783 -3.01469 -1.94586
thorax -2.13098 -1.46114 -2.22037
lowerneck -17.8446 16.1964 10.297
upperneck 19.0771 23.5126 -14.208
head 12.2221 9.93545 -2.58793
rclavicle 8.5875e-014 -4.77083e-014
rhumerus -51.0213 14.0566 -91.802
rradius 60.3873
rwrist -20.5131
rhand -3.44252 -24.6558
rfingers 7.12502
rthumb 22.2892 -53.3903
lclavicle 8.5875e-014 -4.77083e-014
lhumerus -31.4016 -40.2501 102.291
lradius 76.374
lwrist 15.1105
lhand -23.7998 -21.8023
lfingers 7.12502
lthumb 2.67066 8.16077
rfemur -18.7449 -5.26387 11.6024
rtibia 37.6622
rfoot -21.0219 -5.30825
rtoes -29.6053
lfemur -31.9596 -7.03349 -16.0217
ltibia 72.4157
lfoot -16.3398 4.10273
ltoes -1.9766
784
root -29.201 15.52 0.489707 -1078.15 42.2252 -5.89092
lowerback 11.2194 -2.24436 1.42598
upperback 4.07928 -2.79759 -1.67938
thorax -2.18029 -1.3483 -2.18338
lowerneck -18.0779 15.8671 10.1929
upperneck 19.2041 23.1093 -14.3136
head 12.2661 9.72282 -2.68617
rclavicle 4.73108e-014 1.74931e-014
rhumerus -49.9151 14.5624 -91.3134
rradius 57.8876
rwrist -18.2573
rhand -2.46063 -24.8107
rfingers 7.12502
rthumb 23.2315 -53.4294
lclavicle 4.73108e-014 1.74931e-014
lhumerus -32.3707 -40.3515 103.275
lradius 74.8563
lwrist 24.8415
lhand -33.6297 -24.7891
lfingers 7.12502
lthumb -6.82215 5.08099
rfemur -18.6949 -5.97445 12.9368
rtibia 38.8138
rfoot -21.9093 -6.50243
rtoes -28.9628
lfemur -31.9891 -4.80265 -16.4956
ltibia 72.4948
lfoot -17.8856 4.48819
ltoes -5.28131
785
root -29.3764 15.5194 0.643346 -1077.84 43.912 -5.39232
lowerback 11.2412 -2.05523 0.847617
upperback 4.146 -2.59768 -1.47849
thorax -2.07883 -1.24938 -1.67695
lowerneck -18.2851 15.5312 10.0882
upperneck 19.6044 22.6941 -14.2132
head 12.3765 9.51517 -2.71651
rclavicle -4.13472e-014 5.56597e-015
rhumerus -49.0815 14.6697 -90.257
rradius 55.6619
rwrist -14.4616
rhand -2.7206 -25.2657
rfingers 7.12502
rthumb 22.9821 -53.9157
lclavicle -4.13472e-014 5.56597e-015
lhumerus -32.4645 -38.7638 103.191
lradius 72.5498
lwrist 27.758
lhand -37.7982 -23.3975
lfingers 7.12502
lthumb -10.8446 6.30253
rfemur -18.6862 -6.71705 13.3825
rtibia 39.6681
rfoot -22.9548 -7.34379
rtoes -27.2154
lfemur -31.9776 -2.80757 -17.936
ltibia 72.0059
lfoot -19.0765 3.85846
ltoes -6.48098
786
root -29.5374 15.5267 0.791574 -1077.01 45.731 -4.45269
lowerback 11.1516 -1.89306 -0.0756704
upperback 4.05912 -2.47491 -1.29086
thorax -2.06908 -1.19352 -0.981227
lowerneck -18.5029 15.1177 9.8455
upperneck 20.1555 22.2071 -14.011
head 12.5069 9.27105 -2.70816
rclavicle -1.19271e-013 1.74931e-014
rhumerus -48.6179 14.4064 -88.803
rradius 54.0958
rwrist -10.1879
rhand -3.31906 -25.9354
rfingers 7.12502
rthumb 22.4077 -54.6557
lclavicle -1.19271e-013 1.74931e-014
lhumerus -31.5269 -35.5528 101.578
lradius 68.4023
lwrist 22.2573
lhand -35.0989 -17.6051
lfingers 7.12502
lthumb -8.2402 12.2142
rfemur -18.6978 -7.51572 13.4556
rtibia 40.1865
rfoot -24.0006 -7.92781
rtoes -25.5066
lfemur -32.0069 -1.0698 -19.7795
ltibia 71.1185
lfoot -19.7892 3.13494
ltoes -7.74637
787
root -29.6847 15.5382 0.933259 -1077.31 47.4776 -4.89247
lowerback 11.1969 -1.78789 0.143925
upperback 3.99989 -2.30391 -0.9846
thorax -2.1483 -1.10889 -0.806848
lowerneck -18.807 14.6324 9.62639
upperneck 20.6792 21.58 -13.7618
head 12.6232 8.96901 -2.71236
rclavicle 5.60573e-014 -1.27222e-014
rhumerus -48.2708 13.8525 -87.3613
rradius 52.8286
rwrist -6.54425
rhand -2.70484 -25.322
rfingers 7.12502
rthumb 22.9972 -53.9701
lclavicle 5.60573e-014 -1.27222e-014
lhumerus -31.0954 -31.0963 99.7168
lradius 64.6723
lwrist 15.2938
lhand -31.3449 -13.6845
lfingers 7.12502
lthumb -4.61617 16.2452
rfemur -18.4337 -7.97784 14.5926
rtibia 40.4226
rfoot -24.7877 -8.76956
rtoes -22.9942
lfemur -31.7614 0.813266 -20.524
ltibia 70.017
lfoot -20.0975 2.46764
ltoes -9.64234
